#!OML:ASF F:\VICON\USERDATA\INSTALL\rory3\rory3.ASF
:FULLY-SPECIFIED
:DEGREES
401
root 0.462356 16.0626 3.57279 9.3473 -32.2994 10.3193
lowerback -5.7579 4.47844 8.32921
upperback 1.32418 5.4587 -2.11431
thorax 5.62787 3.01417 -6.28174
lowerneck -3.62625 -4.59646 -12.1769
upperneck 48.1211 -7.87343 4.8393
head 20.4904 -4.93908 3.32242
rclavicle 7.15625e-015 -4.77083e-015
rhumerus -26.3372 25.8957 -89.8049
rradius 52.6436
rwrist -3.85348
rhand -15.5945 -46.8859
rfingers 7.12502
rthumb 10.5914 -76.599
lclavicle 7.15625e-015 -4.77083e-015
lhumerus -20.0688 -54.6139 91.7984
lradius 82.8855
lwrist 27.8967
lhand -18.6107 -21.5162
lfingers 7.12502
lthumb 7.68095 8.32435
rfemur -20.8829 -3.61552 0.622328
rtibia 65.8699
rfoot -5.36273 -14.8347
rtoes -29.228
lfemur -44.7745 -21.3107 -29.3848
ltibia 51.2512
lfoot -18.6175 -12.908
ltoes 21.7033
402
root 0.460439 16.0609 3.58335 9.45422 -32.3429 10.3376
lowerback -5.89077 4.52479 8.33275
upperback 1.34453 5.50642 -2.07605
thorax 5.73002 3.04112 -6.22585
lowerneck -3.61383 -4.65716 -12.2761
upperneck 48.0536 -7.96525 4.88934
head 20.4646 -4.9835 3.34872
rclavicle 2.8625e-014 7.95139e-014
rhumerus -26.4404 26.5312 -90.0786
rradius 52.2812
rwrist -4.93043
rhand -17.2748 -46.9126
rfingers 7.12502
rthumb 8.97017 -76.7019
lclavicle 2.8625e-014 7.95139e-014
lhumerus -20.4079 -54.4853 92.075
lradius 82.9672
lwrist 27.5667
lhand -17.3764 -21.2151
lfingers 7.12502
lthumb 8.87214 8.57839
rfemur -20.9687 -3.72025 0.556585
rtibia 65.8605
rfoot -5.29131 -14.7902
rtoes -30.7611
lfemur -44.8766 -21.3795 -29.3954
ltibia 51.3016
lfoot -18.7386 -12.67
ltoes 21.2767
403
root 0.458162 16.0556 3.5973 9.48246 -32.32 10.4234
lowerback -5.83745 4.48621 8.13954
upperback 1.22685 5.46892 -1.93559
thorax 5.53275 3.00109 -5.98195
lowerneck -3.48329 -4.66984 -12.5613
upperneck 48.1778 -7.97824 4.92256
head 20.5547 -5.04345 3.42196
rclavicle -1.06946e-013 -2.06736e-014
rhumerus -26.9055 26.9259 -90.1918
rradius 52.1691
rwrist -4.62083
rhand -16.8554 -44.4117
rfingers 7.12502
rthumb 9.37489 -74.1832
lclavicle -1.06946e-013 -2.06736e-014
lhumerus -21.2342 -54.4705 92.8243
lradius 83.1169
lwrist 27.6303
lhand -17.6958 -20.7126
lfingers 7.12502
lthumb 8.56389 9.09376
rfemur -20.893 -3.90467 0.408265
rtibia 65.8278
rfoot -4.83505 -14.9168
rtoes -31.1529
lfemur -44.9206 -21.5099 -29.4948
ltibia 51.3756
lfoot -18.8843 -12.43
ltoes 20.5168
404
root 0.458171 16.0498 3.59815 9.54089 -32.1374 10.3582
lowerback -5.94267 4.48441 8.29686
upperback 1.34322 5.43849 -1.86576
thorax 5.72022 3.00007 -5.9878
lowerneck -3.66731 -4.7612 -12.8686
upperneck 48.3105 -8.14423 5.14902
head 20.7931 -5.13945 3.56833
rclavicle -4.17448e-014 5.725e-014
rhumerus -26.8105 26.9813 -90.1356
rradius 51.8883
rwrist -4.16795
rhand -15.6241 -47.518
rfingers 7.12502
rthumb 10.5627 -77.2326
lclavicle -4.17448e-014 5.725e-014
lhumerus -21.3049 -54.8125 92.9491
lradius 83.1924
lwrist 27.7669
lhand -19.1948 -20.5411
lfingers 7.12502
lthumb 7.11714 9.3192
rfemur -20.858 -4.12204 0.511033
rtibia 65.8623
rfoot -4.38757 -15.1395
rtoes -30.7394
lfemur -44.9921 -21.6684 -29.4144
ltibia 51.4763
lfoot -19.0657 -12.2143
ltoes 19.4631
405
root 0.45902 16.0441 3.58912 9.60437 -32.0043 10.2604
lowerback -5.84661 4.48896 8.46767
upperback 1.40909 5.43663 -1.84496
thorax 5.75094 3.00804 -6.06576
lowerneck -4.43235 -4.92804 -13.0332
upperneck 48.5904 -8.29286 5.26132
head 21.406 -5.24892 3.75692
rclavicle -3.37934e-014 6.99722e-014
rhumerus -26.654 27.0861 -90.2782
rradius 51.2865
rwrist -3.59969
rhand -16.4589 -45.3256
rfingers 7.12502
rthumb 9.75743 -75.0795
lclavicle -3.37934e-014 6.99722e-014
lhumerus -21.5443 -55.0993 93.1762
lradius 83.213
lwrist 27.657
lhand -20.0225 -20.505
lfingers 7.12502
lthumb 6.31805 9.3808
rfemur -20.9719 -4.2548 0.680362
rtibia 65.9887
rfoot -4.18933 -15.2813
rtoes -31.1331
lfemur -45.1192 -21.6998 -29.2878
ltibia 51.5998
lfoot -19.1387 -12.2737
ltoes 19.1559
406
root 0.457976 16.0369 3.57994 9.65218 -31.9292 10.2208
lowerback -5.81838 4.57405 8.61622
upperback 1.56248 5.54 -1.89328
thorax 5.93792 3.07826 -6.18125
lowerneck -3.9981 -5.01074 -12.8885
upperneck 48.1788 -8.61145 5.46888
head 20.9076 -5.27372 3.6462
rclavicle -7.83212e-014 -4.77083e-015
rhumerus -26.3269 26.8965 -90.31
rradius 50.842
rwrist -3.28373
rhand -16.886 -44.2281
rfingers 7.12502
rthumb 9.34536 -74.0009
lclavicle -7.83212e-014 -4.77083e-015
lhumerus -21.4457 -55.5818 93.1221
lradius 83.202
lwrist 27.257
lhand -19.6015 -20.7961
lfingers 7.12502
lthumb 6.72449 9.07709
rfemur -21.0941 -4.32047 0.769535
rtibia 66.1518
rfoot -4.3848 -15.3552
rtoes -31.0054
lfemur -45.2531 -21.6765 -29.2242
ltibia 51.7326
lfoot -19.1532 -12.3996
ltoes 19.3601
407
root 0.457512 16.03 3.56915 9.75788 -31.8844 10.1219
lowerback -5.71349 4.68016 8.78598
upperback 1.6293 5.67696 -1.90518
thorax 5.994 3.1571 -6.27396
lowerneck -3.79055 -5.1358 -12.6275
upperneck 47.847 -8.78406 5.32694
head 20.5784 -5.29433 3.48668
rclavicle -1.51076e-014 3.18055e-015
rhumerus -26.2698 26.6463 -90.341
rradius 50.5645
rwrist -2.97043
rhand -16.4657 -45.2149
rfingers 7.12502
rthumb 9.75084 -74.9692
lclavicle -1.51076e-014 3.18055e-015
lhumerus -21.344 -56.1358 93.0825
lradius 83.2041
lwrist 27.0989
lhand -18.7344 -21.1717
lfingers 7.12502
lthumb 7.56152 8.67311
rfemur -21.2588 -4.29512 0.913989
rtibia 66.3211
rfoot -4.79459 -15.4105
rtoes -30.3358
lfemur -45.4379 -21.6321 -29.0849
ltibia 51.8558
lfoot -19.1195 -12.5442
ltoes 19.7958
